<?xml version="1.0" encoding="utf-8"?>
<!-- Generator: Adobe Illustrator 18.1.0, SVG Export Plug-In . SVG Version: 6.00 Build 0)  -->
<svg version="1.1" id="Layer_1" xmlns="http://www.w3.org/2000/svg" xmlns:xlink="http://www.w3.org/1999/xlink" x="0px" y="0px"
	 width="200px" height="200px" viewBox="-20 198.3 200 200" enable-background="new -20 198.3 200 200" xml:space="preserve">
<g>
	<path fill="#FFC800" d="M178.4,309.2c0-4-1-7.9-2.8-11.3c3-4.7,4.5-10.1,4.5-15.7c0-11.3-6.5-21.6-16.8-26.5
		c-5.6-3-13.2-3.8-21.8-4.7c-6.1-0.6-13.2-1.2-20.2-2.8c-17-3.8-30.3-11.9-34.8-16.2l-1-1c-1.8-1.6-2.4-2.2-3.4-3.6
		c-3.4-4.7-7.7-5.6-10.5-5.6c-7.1,0-12.7,5.6-12.7,12.7c0,10.1,7.1,19.8,19.6,27.3c0.6,4.8,3.2,9.1,7.1,11.9c-4.7-1-10.1-1.6-16-2
		c-6.7-0.6-14.3-1.2-22.2-3c-18.6-4.2-33.4-13.2-38.2-17.8L8.3,250c-2-1.8-2.6-2.4-3.8-4c-3.6-4.8-8.1-5.9-11.1-5.9
		c-7.3,0-13.3,6.1-13.3,13.3c0,10.9,7.9,21.6,21.4,29.5c0.6,6.7,5,12.5,11.7,15.1l5,2c1.4,6.5,6.3,11.7,13.2,13.5l8.3,2.4
		c0.8,0.2,1.6,0.4,2.4,0.6c2,5.5,6.5,9.7,12.5,11.5l3.8,1.2c-0.4,1.6-0.6,3.4-0.6,5.5c0,1.6,0.2,3.2,0.4,4.8c0.6,3.6,2,6.9,4,9.7
		c0,1,0,2,0,3c0,0-0.8,22.4,55.6,22.4c56.2,0,55.4-22.4,55.4-22.4c0-8.3-1.8-16.2-5-23l0.8-0.6C175,324,178.4,316.9,178.4,309.2z
		 M104,334.9c0,11.3-9.1,20.4-20.4,20.4c-9.9,0-18.2-7.1-20-16.6c-0.2-1.2-0.4-2.4-0.4-3.8c0-3,0.6-5.6,1.8-8.3
		c-1-0.6-2-1.4-2.8-2.2l-6.3-1.8c-5.5-1.6-9.3-6.5-9.3-11.5c-0.6,0-1.2,0.2-1.8,0.2c-1.2,0-2.4-0.2-3.6-0.6l-8.2-2.5
		c-5.6-1.6-9.5-6.9-9.3-12.1c-0.2,0-0.2,0-0.4-0.2l-7.7-3.2c-5.6-2.2-8.9-7.9-8.1-13.3c-14.1-7.3-21.6-17-21.6-26.1
		c0-4.2,3.4-7.7,7.7-7.7c2.6,0,4.8,1.2,6.5,3.6c1.6,2.2,2.6,3.2,5.6,5.9c6.3,6.1,22.2,14.9,41,19.2c18.6,4.2,35.6,2.4,44.6,7.5l0,0
		c6.7,3.2,11.9,9.1,14,16.4l0,0c0.2,0.6,0.2,1.2,0.4,1.6c0.4,1.8,0.6,3.4,0.6,5.3c0,6.5-2.4,12.3-6.3,17
		C102.4,325.8,104,330,104,334.9z M108.2,290.8L108.2,290.8L108.2,290.8L108.2,290.8z M165.2,324.2c-7.7-12.7-20.2-22.2-35.2-25.9
		h-0.2c-0.4-6.5-5.6-11.7-12.3-11.7c-0.8,0-1.8,0-2.6,0.2l-7.1-2c-5.3-1.4-8.7-6.3-8.5-11.1c0,0-0.2,0-0.2-0.2l-7.3-2.8
		c-5-2-8.1-7.1-7.3-12.1C71.7,251.8,65,242.9,65,234.6c0-3.8,3-6.9,6.9-6.9c2.4,0,4.5,1.2,5.9,3.2c1.6,2,2.4,2.8,5,5.5
		c5.9,5.5,20.4,13.7,37.4,17.6c17,3.8,32.5,2.2,40.6,6.9l0,0c8.1,3.8,13.7,11.9,13.7,21.4c0,5.9-2.2,11.3-5.6,15.6
		c2.4,3.2,4,7.1,4,11.5C172.7,315.3,169.9,320.7,165.2,324.2z"/>
	<circle fill="#FFC800" cx="83.8" cy="334.9" r="12.1"/>
</g>
</svg>
